<svg width="0" height="0" class="hidden">
    <symbol id="icon-arrow-left" xmlns="http://www.w3.org/2000/svg" viewBox="0 0 7.535 13.179">
        <path d="M12.779,16.51l4.983-4.987a.938.938,0,0,1,1.33,0,.95.95,0,0,1,0,1.334l-5.646,5.65a.94.94,0,0,1-1.3.027L6.462,12.861a.942.942,0,0,1,1.33-1.334Z" transform="translate(18.782 -6.188) rotate(90)" />
    </symbol>
    <symbol id="icon-arrow-right" xmlns="http://www.w3.org/2000/svg" viewBox="0 0 7.535 13.179">
        <path d="M12.779,16.51l4.983-4.987a.938.938,0,0,1,1.33,0,.95.95,0,0,1,0,1.334l-5.646,5.65a.94.94,0,0,1-1.3.027L6.462,12.861a.942.942,0,0,1,1.33-1.334Z" transform="translate(-11.246 19.366) rotate(-90)" fill="#515163" />
    </symbol>
</svg>
